<?xml version="1.0" standalone="no"?>
<!DOCTYPE svg PUBLIC "-//W3C//DTD SVG 20010904//EN"
 "http://www.w3.org/TR/2001/REC-SVG-20010904/DTD/svg10.dtd">
<svg version="1.0" xmlns="http://www.w3.org/2000/svg"
 width="512.000000pt" height="512.000000pt" viewBox="0 0 512.000000 512.000000"
 preserveAspectRatio="xMidYMid meet">
<metadata>
Created by potrace 1.14, written by Peter Selinger 2001-2017
</metadata>
<g transform="translate(0.000000,512.000000) scale(0.100000,-0.100000)"
fill="#000000" stroke="none">
<path d="M2350 5103 c-349 -56 -704 -290 -958 -631 -250 -337 -409 -762 -468
-1252 -11 -87 -11 -535 -1 -635 82 -781 489 -1468 1040 -1754 l97 -51 -62 -1
c-35 -1 -72 -3 -83 -4 -11 -1 -54 -5 -95 -9 -187 -18 -329 -59 -349 -102 -14
-32 0 -61 36 -70 25 -7 219 1 278 11 17 3 -1 -4 -40 -15 -65 -18 -140 -25
-223 -22 -33 2 -81 39 -95 72 -5 13 -8 12 -20 -2 -10 -13 -14 -45 -13 -118 1
-60 -3 -100 -9 -101 -26 -2 -156 1 -210 6 -299 28 -503 131 -591 300 -46 86
-49 67 -29 -145 5 -56 16 -139 21 -165 3 -11 9 -54 15 -95 11 -73 13 -77 69
-131 67 -66 166 -118 285 -148 121 -31 129 -32 280 -36 218 -7 399 31 580 121
121 61 130 71 130 141 l0 57 73 13 c171 28 311 38 557 38 253 0 376 -9 560
-39 l70 -12 0 -58 c0 -52 3 -60 30 -82 71 -56 248 -128 395 -160 104 -22 340
-26 455 -8 246 40 441 158 459 278 4 26 9 55 11 64 1 10 6 40 9 67 4 28 9 61
11 75 15 77 27 268 18 273 -5 3 -22 -20 -38 -50 -93 -178 -305 -278 -634 -299
-53 -4 -109 -7 -126 -9 -16 -1 -34 0 -40 2 -6 2 -9 42 -9 96 2 88 -6 137 -23
137 -4 0 -16 -14 -25 -30 -23 -40 -59 -53 -139 -52 -63 0 -228 28 -239 39 -3
3 11 3 30 -1 54 -11 255 -19 284 -12 35 9 49 38 35 70 -21 44 -170 86 -364
102 -38 3 -79 7 -90 9 -11 2 -49 4 -85 5 l-65 1 90 47 c589 309 999 1036 1052
1862 61 951 -316 1831 -952 2227 -273 170 -586 235 -895 186z m420 -49 c268
-46 506 -179 735 -409 274 -275 456 -606 565 -1032 17 -62 32 -126 34 -141 3
-15 12 -67 20 -117 25 -147 31 -229 31 -440 0 -198 -7 -314 -25 -430 -5 -33
-12 -78 -16 -100 -11 -76 -54 -250 -85 -345 -126 -384 -307 -684 -560 -924
-223 -212 -469 -336 -759 -381 -41 -6 -288 -7 -298 -1 -4 2 -32 7 -62 11 -70
9 -224 57 -317 100 -433 199 -802 679 -967 1257 -37 131 -71 287 -82 378 -3
30 -8 57 -9 60 -8 13 -19 231 -19 365 -1 188 10 333 34 460 5 28 12 65 15 82
42 259 178 618 318 842 362 581 891 861 1447 765z m-563 -4323 c222 -65 490
-65 701 1 61 19 83 20 242 15 186 -7 329 -26 406 -54 53 -20 75 -46 56 -65
-12 -12 -56 -9 -294 24 -87 12 -88 12 -114 -13 -25 -23 -26 -28 -19 -89 20
-201 20 -184 -6 -177 -13 3 -58 9 -99 12 -41 4 -86 9 -100 11 -42 7 -299 18
-410 18 -115 0 -372 -11 -435 -19 -22 -3 -60 -7 -85 -10 -25 -3 -63 -8 -84
-11 l-39 -6 7 63 c20 182 19 182 -4 208 -21 21 -28 23 -89 17 -36 -4 -102 -13
-145 -20 -44 -7 -103 -13 -130 -12 -44 1 -51 4 -51 21 0 38 133 79 295 92 41
3 76 7 78 8 2 2 59 4 128 4 97 2 138 -2 191 -18z m2321 -213 c-10 -167 -32
-252 -75 -291 -133 -121 -325 -181 -583 -180 -196 0 -382 38 -535 108 -71 33
-84 45 -89 85 -6 42 -19 267 -20 330 -1 45 -1 45 37 48 l37 3 -26 -26 c-24
-24 -25 -28 -11 -48 20 -31 82 -73 152 -103 33 -14 50 -23 38 -21 -19 4 -22 0
-25 -46 -2 -35 1 -55 12 -66 13 -13 15 -12 18 8 3 20 8 22 35 18 33 -5 67 7
67 23 0 6 -10 20 -21 31 l-22 22 29 -7 c93 -24 371 -27 494 -6 188 31 352 98
441 180 30 27 54 49 54 50 0 0 -3 -51 -7 -112z m-3876 58 c97 -84 268 -150
468 -180 93 -14 334 -14 410 -1 187 33 345 114 338 174 -2 15 -13 31 -28 39
-24 12 -22 12 20 10 l45 -3 -1 -50 c-2 -74 -14 -274 -20 -322 -4 -34 -11 -46
-37 -62 -54 -33 -177 -78 -277 -100 -361 -81 -715 -23 -894 147 -47 44 -65
123 -80 350 -1 23 -1 42 2 42 2 0 26 -20 54 -44z m1178 -31 c-53 -56 -204
-111 -335 -122 l-71 -6 2 64 c2 108 1 104 22 86 49 -44 182 -46 313 -4 83 27
105 21 69 -18z m1705 -9 c68 -1 98 3 124 17 19 9 37 17 40 17 4 0 7 -34 7 -76
l0 -76 -76 5 c-125 9 -291 73 -338 130 -27 32 -2 35 75 10 58 -19 101 -26 168
-27z m-28 -122 c-3 -3 -12 -4 -19 -1 -8 3 -5 6 6 6 11 1 17 -2 13 -5z m11 -43
c3 -9 -5 -12 -24 -9 -17 2 -30 10 -32 20 -3 14 2 15 24 9 15 -4 30 -13 32 -20z"/>
<path d="M2498 5055 c-2 -1 -34 -5 -73 -9 -457 -40 -907 -397 -1173 -931 -131
-265 -204 -508 -256 -855 -10 -66 -20 -275 -19 -390 8 -850 377 -1603 956
-1950 333 -199 725 -228 1088 -80 406 165 777 600 957 1120 116 337 162 629
156 990 -3 182 -8 251 -30 385 -8 50 -17 104 -20 120 -3 17 -14 68 -25 114
-162 692 -587 1235 -1111 1419 -77 28 -115 37 -237 57 -38 6 -208 15 -213 10z
m257 -60 c376 -71 701 -310 959 -708 181 -277 321 -687 361 -1057 3 -30 8 -73
10 -95 7 -63 7 -394 1 -460 -43 -408 -117 -681 -268 -980 -175 -348 -443 -632
-734 -778 -282 -141 -602 -165 -896 -67 -473 159 -872 633 -1057 1257 -33 113
-76 316 -87 408 -3 33 -9 69 -11 80 -13 48 -10 515 3 625 46 389 160 735 340
1032 176 290 425 525 685 647 92 43 232 87 319 100 93 14 290 12 375 -4z"/>
<path d="M2586 4900 c-3 -25 -8 -74 -12 -110 -3 -36 -8 -68 -10 -72 -3 -5 107
-20 165 -22 15 -1 24 31 12 38 -4 3 -28 6 -54 7 -59 3 -70 10 -65 40 3 22 7
24 59 21 46 -2 58 0 63 14 4 9 5 18 3 20 -2 2 -65 10 -110 13 -5 1 -7 11 -5
24 3 24 16 27 86 16 39 -5 42 -4 42 18 0 18 -6 23 -27 24 -16 0 -53 4 -84 8
l-57 7 -6 -46z"/>
<path d="M2328 4923 c-33 -5 -33 -4 -12 -137 l16 -103 51 8 c72 12 103 26 116
55 24 54 4 151 -37 173 -20 11 -79 12 -134 4z m112 -48 c18 -21 25 -102 11
-119 -13 -15 -69 -27 -76 -16 -3 4 -7 32 -11 61 -3 30 -9 58 -11 63 -15 25 67
35 87 11z"/>
<path d="M2927 4761 c-26 -54 -47 -102 -47 -105 0 -4 36 -24 80 -45 75 -36 80
-37 86 -19 7 23 11 20 -54 52 -49 25 -52 28 -41 49 7 12 13 23 14 25 2 2 26
-8 54 -22 49 -23 52 -24 61 -5 9 16 3 22 -45 47 -51 25 -54 29 -42 46 13 18
16 18 70 -7 47 -21 56 -23 61 -10 3 8 6 16 6 19 0 5 -137 74 -148 74 -4 0 -29
-44 -55 -99z"/>
<path d="M1973 4783 c-29 -15 -53 -31 -53 -35 0 -7 96 -184 106 -197 6 -7 94
43 114 64 28 29 30 66 9 116 -21 48 -61 79 -101 79 -12 0 -47 -12 -75 -27z
m100 -33 c14 -11 31 -37 38 -57 11 -35 10 -38 -16 -60 -15 -13 -32 -22 -38
-20 -6 2 -26 31 -45 65 l-33 61 28 15 c36 20 36 20 66 -4z"/>
<path d="M3168 4687 c-20 -29 -50 -71 -68 -94 l-31 -42 66 -47 c58 -41 68 -45
81 -32 13 12 9 18 -31 47 -25 18 -45 36 -45 40 0 4 25 39 54 79 54 70 55 75
21 95 -6 3 -27 -18 -47 -46z"/>
<path d="M2385 4644 c-602 -131 -1040 -866 -1039 -1744 0 -121 9 -267 20 -340
53 -346 153 -625 311 -870 171 -264 406 -451 655 -521 119 -33 327 -34 443 -1
321 92 590 343 770 717 102 212 172 447 200 671 4 27 9 60 12 74 19 95 5 591
-21 677 -2 10 -7 35 -10 55 -16 106 -65 280 -117 411 -149 376 -381 654 -662
792 -175 86 -389 116 -562 79z m335 -49 c173 -35 349 -135 494 -282 283 -286
463 -722 503 -1216 64 -793 -269 -1565 -782 -1816 -145 -71 -210 -86 -375 -86
-174 0 -231 13 -375 85 -124 61 -209 125 -313 235 -248 261 -415 654 -469
1105 -16 129 -7 619 12 649 1 4 6 28 9 55 4 27 9 52 11 55 1 3 6 22 9 41 20
128 94 339 171 493 257 510 675 769 1105 682z"/>
<path d="M2510 4314 c-89 -26 -161 -122 -270 -357 -77 -165 -230 -405 -313
-487 -73 -73 -105 -128 -111 -192 -8 -81 44 -174 91 -165 19 4 23 -1 28 -32 3
-20 9 -47 12 -61 15 -59 4 -291 -18 -373 -9 -33 -7 -42 8 -59 15 -16 26 -19
60 -14 42 5 42 5 33 -20 -8 -21 -6 -29 16 -49 15 -14 27 -35 28 -47 1 -17 8
-24 29 -26 32 -4 51 -34 42 -69 -13 -54 30 -105 102 -121 41 -9 132 -8 192 3
l34 6 -7 -59 c-8 -74 -39 -188 -67 -247 -11 -24 -59 -86 -107 -137 -93 -101
-123 -154 -125 -224 -2 -52 18 -72 118 -123 95 -49 170 -63 334 -64 216 -2
276 24 391 169 100 126 172 291 186 427 9 87 -8 146 -53 189 -65 62 -133 185
-148 268 l-6 35 70 1 c99 2 150 24 209 90 92 101 106 271 31 373 -42 59 -74
76 -136 75 l-53 -2 0 57 c0 80 15 123 77 229 101 172 116 264 63 368 -21 40
-32 79 -35 122 -3 35 -14 85 -24 112 -37 98 -138 208 -236 257 -27 14 -72 42
-100 63 -104 77 -251 113 -345 84z m180 -50 c68 -20 95 -34 144 -78 22 -19 51
-38 65 -41 67 -17 222 -164 263 -250 24 -50 28 -68 22 -107 -5 -38 -2 -53 15
-77 78 -109 71 -245 -19 -341 -26 -28 -33 -30 -97 -30 l-68 0 2 65 c1 35 4 69
8 74 3 6 -7 10 -27 9 -18 0 -57 3 -86 7 -52 7 -55 6 -88 -26 -31 -30 -34 -31
-40 -13 -21 59 -39 95 -74 150 -49 75 -56 108 -59 314 -2 134 -5 168 -18 180
-14 13 -15 12 -9 -15 3 -16 9 -111 12 -210 6 -199 -2 -170 98 -359 20 -37 36
-81 36 -97 0 -27 -1 -28 -32 -17 -56 19 -86 46 -104 96 -59 161 -77 200 -103
230 -27 29 -61 43 -61 25 0 -4 18 -34 39 -67 44 -68 80 -151 83 -194 7 -90
-81 -149 -182 -122 -48 13 -104 60 -118 98 -29 85 32 201 91 170 19 -10 23
-38 6 -55 -15 -15 -3 -33 21 -33 22 0 50 47 50 84 0 55 -81 91 -138 62 -55
-28 -101 -138 -88 -210 10 -52 77 -121 142 -145 96 -37 164 -22 225 46 22 26
33 33 42 24 25 -25 -61 -102 -137 -122 -130 -35 -285 65 -301 195 -4 28 -2 63
4 79 13 34 -1 36 -19 2 -7 -13 -28 -31 -45 -40 -41 -19 -125 -21 -125 -2 0 15
46 90 117 190 28 40 75 118 103 173 179 340 205 379 272 394 43 9 109 4 178
-16z m-492 -886 c55 -89 138 -132 254 -132 76 -1 78 -1 92 -30 12 -26 12 -32
-1 -53 -8 -13 -15 -41 -15 -63 1 -45 -17 -53 -45 -20 -47 54 -67 69 -106 79
-23 6 -60 22 -82 36 -82 51 -225 101 -225 80 0 -22 28 -37 97 -54 66 -15 90
-39 35 -33 -89 10 -173 67 -188 128 -8 32 -1 39 26 24 16 -9 25 -9 33 -1 8 8
14 5 23 -11 12 -22 13 -22 20 -4 18 45 -36 106 -96 109 -18 1 -35 7 -37 14 -5
15 32 26 82 25 22 -1 51 5 65 13 25 13 25 13 36 -30 7 -24 21 -59 32 -77z
m744 81 c68 -17 78 -68 27 -138 -17 -24 -29 -45 -26 -47 2 -2 20 3 40 11 21 8
66 15 106 15 l69 0 -36 -70 c-39 -77 -46 -80 -120 -55 -45 16 -58 13 -119 -31
-22 -16 -23 -16 -23 9 0 37 -43 67 -97 67 -62 0 -65 20 -11 78 33 35 48 62 58
100 12 54 39 84 69 76 9 -2 37 -9 63 -15z m-1005 -53 c-24 -20 -53 -66 -42
-66 3 0 18 8 33 17 21 14 19 9 -10 -20 -21 -20 -38 -45 -39 -54 0 -10 -2 -26
-4 -35 -6 -34 14 -18 34 26 10 24 28 49 39 55 17 9 25 2 63 -57 24 -37 63 -80
86 -96 37 -26 54 -30 129 -34 l86 -5 29 -41 c16 -22 42 -48 57 -57 15 -9 45
-47 67 -88 22 -39 53 -88 69 -107 37 -47 107 -91 157 -99 27 -5 39 -12 39 -23
1 -15 2 -15 14 1 13 17 37 22 49 10 10 -10 -24 -43 -44 -43 -21 0 -51 -28 -44
-41 9 -14 43 -11 69 6 14 10 27 30 30 50 5 26 12 35 26 35 12 0 20 -7 20 -16
0 -27 60 -93 104 -116 55 -28 162 -36 202 -15 39 21 81 61 98 95 20 40 28 82
16 82 -6 0 -15 -12 -20 -27 -29 -80 -86 -123 -160 -123 -95 0 -184 45 -186 93
-1 15 -10 34 -20 42 -22 16 -85 29 -133 26 -69 -4 -141 27 -197 84 -46 48 -95
137 -82 150 11 12 36 -8 51 -40 28 -60 140 -123 177 -100 19 12 -9 34 -66 51
-35 10 -62 26 -79 45 -42 51 -29 62 40 33 33 -14 39 -14 61 1 29 19 32 39 4
30 -23 -7 -75 18 -84 40 -14 38 8 125 32 125 5 0 16 6 26 13 17 13 17 15 -3
56 l-22 42 31 39 c18 22 40 40 50 40 23 0 54 -40 41 -53 -5 -5 -7 -15 -4 -22
2 -8 -4 -18 -15 -24 -11 -6 -25 -25 -31 -43 -11 -29 -10 -35 8 -46 19 -13 19
-15 4 -38 -9 -14 -16 -43 -16 -66 0 -33 6 -47 27 -65 15 -13 36 -23 47 -23 16
0 19 -7 19 -40 0 -127 143 -204 266 -144 35 17 91 81 80 92 -3 2 -23 -11 -46
-29 -39 -31 -48 -34 -110 -34 -77 0 -107 16 -148 76 -22 32 -24 50 -10 109 2
11 -4 14 -23 12 -55 -6 -86 82 -41 118 41 33 100 1 104 -56 3 -45 7 -46 39
-14 40 40 69 46 142 29 l61 -14 -3 -62 c-1 -37 2 -64 9 -68 6 -4 37 -8 70 -8
69 -2 96 -22 131 -96 24 -51 31 -150 12 -173 -7 -8 -10 -23 -7 -34 6 -24 -71
-105 -124 -130 -94 -44 -254 -1 -299 81 -19 33 -23 36 -23 17 0 -39 27 -88 64
-118 29 -23 41 -43 56 -96 29 -95 62 -166 104 -221 35 -46 35 -47 13 -51 -12
-3 -58 -12 -102 -21 -193 -40 -403 -166 -564 -338 -35 -38 -76 -68 -118 -88
-57 -27 -67 -36 -88 -82 l-24 -52 6 40 c9 61 28 92 115 182 111 116 165 236
183 408 6 57 16 74 41 75 30 0 194 122 194 144 0 5 -15 -4 -32 -21 -46 -43
-130 -88 -216 -113 -57 -17 -91 -21 -162 -18 -81 3 -92 5 -116 29 -17 17 -27
39 -28 60 -4 55 -16 78 -49 95 -28 15 -29 18 -14 29 10 7 30 11 47 9 16 -2 32
1 36 7 8 13 -28 40 -41 30 -8 -6 -46 -7 -85 -2 -5 0 -9 17 -7 36 1 25 7 35 18
35 28 0 44 28 33 57 -12 36 -30 39 -29 6 0 -22 -5 -29 -25 -31 -14 -2 -29 -8
-34 -13 -11 -10 -59 -12 -68 -3 -4 3 -2 18 2 34 5 16 11 57 15 92 3 35 8 70
10 78 14 50 14 143 0 182 -9 24 -18 95 -22 163 -3 66 -7 122 -9 124 -12 13
-21 -25 -23 -109 l-2 -45 -34 37 c-21 22 -36 49 -36 65 -5 90 9 129 63 183 20
21 34 28 36 20 3 -7 -7 -22 -21 -34z m658 -158 c4 -16 3 -28 -2 -28 -15 0 -36
47 -28 60 9 15 22 2 30 -32z m538 -1133 c-1 -11 5 -24 13 -28 8 -4 14 -23 14
-41 0 -28 -5 -35 -25 -40 -33 -8 -33 -36 0 -36 23 0 24 -3 19 -37 -3 -21 -19
-58 -36 -83 -18 -26 -26 -46 -19 -48 7 -2 -9 -43 -40 -103 -38 -74 -57 -101
-74 -105 -13 -3 -31 -16 -39 -29 -14 -22 -14 -23 7 -18 40 10 -61 -84 -117
-108 -45 -20 -68 -23 -186 -23 -111 -1 -150 3 -220 22 -98 27 -113 37 -104 66
7 21 6 21 -15 2 -19 -17 -24 -18 -46 -6 -14 7 -32 24 -41 37 -13 20 -13 27 -2
40 7 9 17 30 23 47 8 24 25 39 75 66 41 23 99 69 157 127 158 158 340 264 516
302 108 23 143 22 140 -4z"/>
<path d="M2315 3240 c-5 -9 25 -25 85 -45 25 -9 57 -28 72 -42 34 -33 49 -22
21 15 -14 18 -44 35 -97 53 -42 14 -79 23 -81 19z"/>
<path d="M2052 3025 c-21 -18 -23 -24 -13 -43 6 -12 18 -22 26 -22 8 0 15 -5
15 -10 0 -6 11 -20 26 -32 18 -17 23 -29 19 -46 -3 -13 1 -32 10 -45 8 -12 15
-30 15 -40 0 -16 3 -17 15 -7 8 7 15 25 15 41 0 16 6 29 13 30 6 0 4 4 -7 8
-15 6 -9 11 33 29 38 15 52 26 49 38 -4 23 -70 56 -124 62 -24 2 -47 8 -50 13
-9 14 43 21 126 17 45 -3 83 -1 86 3 7 12 -100 30 -167 28 -47 -2 -68 -8 -87
-24z m132 -73 c2 -4 -11 -6 -30 -4 -19 2 -34 6 -34 8 0 8 59 4 64 -4z m20 -41
c3 -5 -1 -12 -10 -15 -20 -8 -29 -1 -19 13 8 13 22 14 29 2z"/>
<path d="M3190 2876 c20 -52 -6 -101 -68 -129 -39 -18 -43 -22 -24 -25 33 -5
84 28 106 69 22 40 16 109 -9 109 -11 0 -12 -6 -5 -24z"/>
<path d="M3235 2783 c-11 -44 -52 -91 -83 -95 -19 -2 -28 -9 -30 -25 -4 -30
14 -29 60 2 26 18 42 40 57 80 24 64 24 65 12 65 -5 0 -12 -12 -16 -27z"/>
<path d="M3040 2100 c-9 -17 -8 -20 10 -20 11 0 23 -1 26 -2 4 -2 13 7 22 20
14 21 13 22 -16 22 -21 0 -35 -7 -42 -20z"/>
<path d="M2935 2074 c-25 -26 -3 -39 33 -20 17 9 34 20 37 26 10 17 -52 11
-70 -6z"/>
<path d="M3100 2058 c-11 -12 -31 -23 -43 -23 -12 0 -23 -7 -25 -17 -5 -26 44
-24 58 2 6 11 20 20 30 20 11 0 20 6 20 14 0 26 -18 27 -40 4z"/>
<path d="M2838 2044 c-32 -17 -37 -34 -10 -34 21 0 62 27 62 41 0 13 -21 11
-52 -7z"/>
<path d="M2978 2049 c-28 -16 -23 -40 8 -36 23 3 43 21 44 40 0 10 -32 8 -52
-4z"/>
<path d="M2886 2013 c-23 -12 -37 -43 -20 -43 17 0 74 34 74 44 0 17 -22 16
-54 -1z"/>
<path d="M2732 1990 c-29 -27 -29 -44 1 -29 22 12 37 28 37 42 0 13 -16 7 -38
-13z"/>
<path d="M2970 2001 c-31 -8 -33 -36 -3 -37 26 -1 51 23 37 35 -5 4 -20 5 -34
2z"/>
<path d="M2781 1968 c-46 -31 -53 -51 -12 -37 34 12 55 33 49 49 -2 7 -17 2
-37 -12z"/>
<path d="M3032 1978 c-18 -18 -15 -28 8 -28 10 0 24 9 30 20 9 17 8 20 -8 20
-10 0 -23 -5 -30 -12z"/>
<path d="M2832 1944 c-34 -23 -29 -45 7 -31 36 13 60 47 33 47 -10 0 -28 -7
-40 -16z"/>
<path d="M2905 1926 c-16 -13 -26 -28 -22 -32 10 -11 61 21 65 40 5 22 -8 20
-43 -8z"/>
<path d="M3070 1931 c-6 -12 -6 -22 -1 -25 10 -7 41 20 41 35 0 17 -29 9 -40
-10z"/>
<path d="M2970 1915 c-22 -24 -22 -25 -4 -25 23 0 44 18 44 37 0 20 -14 16
-40 -12z"/>
<path d="M2613 1908 c-11 -13 -23 -32 -27 -42 -6 -17 -4 -17 11 -5 37 28 63
53 63 61 0 16 -27 8 -47 -14z"/>
<path d="M2682 1904 c-12 -8 -22 -22 -22 -29 0 -12 5 -12 24 -3 26 11 41 34
27 42 -4 3 -17 -2 -29 -10z"/>
<path d="M2752 1898 c-7 -7 -12 -18 -12 -25 0 -10 5 -10 25 -1 26 12 34 38 12
38 -7 0 -18 -5 -25 -12z"/>
<path d="M3098 1902 c-20 -4 -31 -29 -17 -38 12 -7 43 20 38 33 -2 5 -11 7
-21 5z"/>
<path d="M2810 1873 c-30 -20 -40 -34 -34 -45 9 -14 73 34 74 55 0 12 -14 8
-40 -10z"/>
<path d="M2983 1873 c-19 -13 -32 -43 -19 -43 19 0 76 34 76 45 0 19 -29 18
-57 -2z"/>
<path d="M2862 1847 c-12 -13 -22 -26 -22 -30 0 -13 57 22 63 38 9 23 -17 18
-41 -8z"/>
<path d="M2600 1828 c-33 -32 -28 -48 9 -29 19 11 38 48 28 57 -2 3 -19 -10
-37 -28z"/>
<path d="M2527 1829 c-9 -6 -24 -23 -32 -39 -15 -30 -15 -30 9 -19 23 11 54
54 45 63 -2 3 -12 0 -22 -5z"/>
<path d="M2655 1808 c-34 -40 -15 -52 23 -14 19 18 23 29 16 36 -8 8 -19 2
-39 -22z"/>
<path d="M3022 1828 c-16 -16 -15 -38 2 -38 16 0 46 26 46 41 0 13 -34 11 -48
-3z"/>
<path d="M2895 1814 c-9 -9 -23 -27 -32 -40 -8 -13 -23 -24 -32 -24 -20 0 -77
-55 -64 -63 15 -9 50 11 72 42 12 17 38 38 57 47 43 21 65 54 35 54 -11 0 -27
-7 -36 -16z"/>
<path d="M2700 1775 c-13 -14 -21 -28 -18 -31 9 -9 46 14 58 36 16 30 -11 26
-40 -5z"/>
<path d="M2943 1776 c-34 -29 -25 -43 17 -26 18 8 30 20 30 31 0 25 -13 24
-47 -5z"/>
<path d="M2762 1770 c-22 -21 -29 -40 -14 -40 16 0 52 32 52 46 0 20 -12 18
-38 -6z"/>
<path d="M3028 1769 c-10 -5 -22 -19 -28 -29 -9 -17 -8 -20 9 -17 25 4 51 26
51 43 0 16 -8 17 -32 3z"/>
<path d="M2515 1750 c-26 -10 -72 -60 -56 -60 20 0 70 32 76 48 7 19 4 21 -20
12z"/>
<path d="M2412 1722 c-38 -32 -33 -48 9 -26 16 8 29 16 29 18 0 3 3 11 6 20 9
23 -7 19 -44 -12z"/>
<path d="M2570 1732 c-27 -18 -40 -32 -40 -45 0 -14 59 23 70 43 13 24 4 25
-30 2z"/>
<path d="M2868 1719 c-10 -5 -22 -19 -28 -29 -15 -27 13 -27 40 0 32 32 25 51
-12 29z"/>
<path d="M2611 1694 c-17 -14 -31 -30 -31 -35 0 -12 52 14 69 34 22 27 -6 28
-38 1z"/>
<path d="M2918 1691 c-18 -16 -30 -32 -27 -36 13 -12 57 7 67 30 17 37 -3 39
-40 6z"/>
<path d="M2671 1686 c-34 -36 -21 -50 17 -20 18 14 30 30 27 35 -9 14 -20 11
-44 -15z"/>
<path d="M2996 1675 c-30 -32 -29 -39 7 -30 28 7 43 33 28 48 -6 6 -19 0 -35
-18z"/>
<path d="M2386 1658 c-8 -12 -13 -25 -10 -30 8 -12 48 15 52 36 5 23 -24 20
-42 -6z"/>
<path d="M2719 1667 c-20 -16 -54 -67 -44 -67 16 0 75 52 75 66 0 17 -10 18
-31 1z"/>
<path d="M2311 1644 c-12 -15 -21 -31 -21 -37 0 -13 41 15 58 41 13 19 13 22
-1 22 -9 0 -25 -12 -36 -26z"/>
<path d="M2463 1646 c-15 -13 -24 -28 -20 -32 10 -10 36 6 55 34 19 30 0 28
-35 -2z"/>
<path d="M2756 1625 c-37 -34 -32 -48 9 -24 19 12 35 27 35 35 0 20 -14 17
-44 -11z"/>
<path d="M2513 1625 c-24 -17 -37 -55 -19 -55 12 0 36 22 50 47 10 19 -9 24
-31 8z"/>
<path d="M2571 1608 c-18 -18 -27 -34 -22 -36 17 -6 61 30 61 49 0 25 -2 24
-39 -13z"/>
<path d="M2820 1613 c-14 -18 -17 -29 -10 -31 12 -4 60 36 60 50 0 18 -30 6
-50 -19z"/>
<path d="M2911 1614 c-35 -29 -39 -44 -13 -44 20 0 62 39 62 58 0 19 -16 14
-49 -14z"/>
<path d="M2263 1598 c-6 -7 -13 -26 -17 -42 -7 -26 -6 -28 9 -16 25 21 38 51
28 61 -6 6 -14 5 -20 -3z"/>
<path d="M2312 1587 c-12 -13 -22 -32 -22 -43 1 -16 5 -14 30 14 30 32 38 52
22 52 -5 0 -18 -10 -30 -23z"/>
<path d="M2372 1580 c-29 -27 -29 -44 1 -29 22 12 37 28 37 42 0 13 -16 7 -38
-13z"/>
<path d="M2602 1565 c-34 -29 -44 -53 -14 -36 35 21 54 40 50 52 -2 7 -16 1
-36 -16z"/>
<path d="M2650 1548 c-19 -21 -26 -38 -15 -38 16 0 63 31 68 45 10 23 -29 19
-53 -7z"/>
<path d="M2744 1562 c-11 -7 -34 -45 -34 -57 0 -11 51 28 61 46 10 20 -5 26
-27 11z"/>
<path d="M2391 1537 c-21 -24 -28 -47 -13 -47 9 0 33 25 46 47 12 22 -11 22
-33 0z"/>
<path d="M2805 1529 c-14 -17 -24 -34 -21 -36 8 -9 66 38 66 53 0 23 -16 16
-45 -17z"/>
<path d="M2458 1534 c-25 -13 -40 -54 -20 -54 17 1 54 38 51 53 -4 14 -7 14
-31 1z"/>
<path d="M2867 1522 c-18 -19 -23 -42 -9 -42 16 0 52 32 52 46 0 20 -24 18
-43 -4z"/>
<path d="M2509 1508 c-9 -7 -24 -26 -34 -43 l-18 -30 29 19 c31 19 54 44 54
58 0 12 -14 10 -31 -4z"/>
<path d="M2562 1480 c-20 -19 -30 -50 -16 -50 15 0 64 43 64 56 0 20 -23 17
-48 -6z"/>
<path d="M2636 1481 c-10 -11 -16 -25 -14 -31 4 -14 48 17 48 36 0 20 -14 18
-34 -5z"/>
<path d="M2704 1465 c-9 -14 -15 -28 -13 -30 9 -8 54 21 57 38 5 26 -25 21
-44 -8z"/>
<path d="M2791 1468 c-20 -20 -20 -38 0 -38 12 0 49 37 49 50 0 17 -28 11 -49
-12z"/>
<path d="M1765 4636 c-20 -14 -19 -17 20 -135 40 -121 40 -121 62 -106 19 13
21 20 12 42 -7 20 -6 30 8 45 30 34 53 41 79 28 19 -11 26 -11 39 0 8 7 15 16
15 20 0 6 -127 77 -210 118 -3 1 -15 -4 -25 -12z m92 -107 c-12 -9 -23 -17
-23 -16 -1 1 -9 19 -18 40 l-15 38 39 -22 39 -22 -22 -18z"/>
<path d="M3425 4479 c-30 -24 -31 -49 -5 -108 21 -46 19 -61 -9 -61 -32 0 -51
39 -40 78 2 8 -4 19 -14 25 -23 15 -37 -4 -37 -51 0 -26 9 -43 35 -69 43 -43
87 -43 119 0 20 27 20 28 2 75 -29 75 -30 82 -13 82 25 0 49 -31 43 -55 -8
-32 19 -54 41 -33 21 22 9 68 -26 102 -36 35 -64 39 -96 15z"/>
<path d="M1564 4426 l-55 -57 92 -76 92 -77 24 30 c39 46 63 87 63 107 0 52
-62 114 -125 124 -34 5 -40 2 -91 -51z m139 -31 c38 -38 39 -50 7 -92 l-17
-22 -49 40 c-27 23 -53 45 -58 50 -14 13 33 59 60 59 12 0 38 -16 57 -35z"/>
<path d="M1460 4289 c-7 -11 -10 -22 -8 -23 2 -1 45 -30 96 -65 51 -35 94 -61
95 -60 2 2 8 11 15 21 11 14 1 24 -84 82 -53 36 -98 66 -100 66 -2 0 -8 -9
-14 -21z"/>
<path d="M3590 4254 c-36 -8 -76 -16 -90 -19 -79 -15 -80 -15 -69 -37 8 -15
18 -19 41 -16 26 4 33 0 55 -33 23 -36 24 -38 8 -63 -15 -22 -15 -28 -2 -46
14 -20 17 -17 87 81 65 90 71 103 61 125 -6 13 -14 24 -18 23 -5 0 -37 -7 -73
-15z m29 -51 c-41 -55 -41 -55 -57 -32 -8 11 -12 22 -11 24 3 2 53 18 78 24 2
1 -3 -7 -10 -16z"/>
<path d="M1388 4173 c-45 -52 -50 -102 -12 -132 31 -24 62 -16 111 31 19 19
38 28 47 25 37 -14 3 -77 -41 -77 -25 0 -39 -38 -17 -47 28 -10 78 12 95 42
30 52 32 78 9 108 -32 41 -72 37 -127 -14 -28 -26 -48 -38 -54 -32 -12 12 5
62 21 64 5 1 15 2 20 3 11 1 30 25 30 39 0 15 -67 7 -82 -10z"/>
<path d="M3661 4049 c-84 -40 -102 -53 -96 -67 22 -59 62 -132 72 -132 24 0
25 23 3 71 -13 27 -22 51 -19 53 2 2 39 19 82 39 42 20 77 42 77 49 -1 38 -17
36 -119 -13z"/>
<path d="M1298 3971 c-22 -18 -77 -136 -67 -145 4 -4 199 -86 205 -86 2 0 8 9
14 20 10 18 6 22 -34 40 -32 13 -44 24 -40 34 6 15 55 36 85 36 21 0 59 33 59
51 0 13 -70 5 -100 -11 -17 -9 -20 -8 -20 9 0 24 -29 57 -56 65 -13 4 -30 -1
-46 -13z m57 -51 c8 -14 -14 -80 -26 -80 -6 0 -19 5 -29 10 -19 10 -19 12 -3
45 16 34 45 46 58 25z"/>
<path d="M3778 3893 c-29 -27 -70 -62 -92 -79 -33 -28 -37 -34 -27 -53 7 -12
17 -21 24 -22 20 -1 232 2 233 4 1 1 -2 13 -7 26 -9 23 -12 23 -97 17 l-87 -5
30 27 c17 15 47 41 67 57 29 24 36 36 31 53 -3 12 -9 22 -14 22 -5 0 -32 -21
-61 -47z"/>
<path d="M1179 3688 c-11 -40 -22 -77 -23 -82 -1 -9 214 -80 221 -73 2 2 14
39 27 83 20 68 21 80 9 88 -20 11 -27 0 -43 -57 -15 -55 -16 -57 -51 -50 l-27
5 18 58 c17 57 17 58 -2 63 -20 6 -29 -9 -43 -70 -4 -23 -12 -33 -25 -33 -29
0 -32 15 -16 71 16 54 14 69 -9 69 -9 0 -22 -27 -36 -72z"/>
<path d="M3697 3656 c4 -21 11 -26 33 -26 22 0 30 -6 39 -31 16 -46 14 -67 -9
-79 -16 -8 -19 -17 -14 -33 3 -12 8 -24 10 -26 2 -2 47 30 101 70 75 57 97 79
95 94 -6 30 -11 32 -82 39 -36 4 -90 9 -121 12 l-57 6 5 -26z m193 -39 c0 -2
-14 -14 -31 -26 -25 -19 -33 -21 -40 -10 -18 28 -9 39 31 39 22 0 40 -1 40 -3z"/>
<path d="M1136 3534 c-11 -28 -7 -32 72 -75 l77 -43 -40 -7 c-22 -4 -61 -10
-87 -13 -35 -5 -49 -12 -53 -27 -4 -11 -5 -22 -3 -25 5 -4 214 23 236 31 6 2
12 15 12 28 0 20 -18 35 -100 86 -55 33 -102 61 -104 61 -2 0 -7 -7 -10 -16z"/>
<path d="M3949 3466 c-2 -2 -24 -7 -49 -11 -77 -11 -131 -22 -136 -28 -3 -3 0
-32 6 -65 16 -77 44 -107 103 -107 116 0 156 67 120 198 -4 15 -33 24 -44 13z
m13 -79 c8 -41 -8 -65 -51 -77 -54 -14 -87 0 -96 40 -4 17 -5 33 -2 36 6 6 86
22 118 23 20 1 28 -5 31 -22z"/>
<path d="M1093 3294 c-12 -31 5 -39 115 -55 109 -15 111 -15 116 5 8 29 0 33
-74 41 -36 4 -84 10 -108 15 -33 6 -45 4 -49 -6z"/>
<path d="M3863 3205 c-70 -30 -83 -134 -23 -187 55 -50 161 -30 191 35 20 42
10 101 -23 133 -30 30 -97 39 -145 19z m125 -62 c29 -39 7 -89 -43 -99 -52 -9
-81 2 -95 36 -10 25 -10 34 4 54 25 39 107 44 134 9z"/>
<path d="M1080 3175 c0 -21 6 -24 72 -30 l71 -7 -77 -41 c-67 -35 -77 -43 -74
-64 3 -23 7 -25 73 -29 39 -2 89 -6 111 -9 38 -5 42 -3 46 20 5 22 2 25 -26
26 -58 1 -96 5 -101 10 -3 3 25 22 62 41 49 26 69 43 74 62 6 20 4 26 -9 26
-35 0 -188 11 -204 15 -13 2 -18 -3 -18 -20z"/>
<path d="M3815 2942 c-8 -8 -6 -42 3 -43 4 -1 24 -2 44 -3 66 -3 64 -31 -7
-74 -36 -21 -45 -32 -45 -54 0 -35 7 -35 59 3 l42 30 20 -25 c13 -17 30 -26
48 -26 45 0 62 29 68 114 l5 76 -28 1 c-161 5 -205 5 -209 1z m189 -90 c-5
-43 -17 -57 -38 -49 -11 4 -16 19 -16 45 0 46 3 51 35 45 21 -5 23 -9 19 -41z"/>
<path d="M1067 2933 c-15 -31 0 -38 93 -43 l95 -5 3 -29 c6 -48 -4 -52 -155
-55 -28 -1 -33 -5 -33 -27 l0 -25 96 4 c77 4 100 9 115 24 36 36 29 132 -11
153 -22 12 -197 14 -203 3z"/>
<path d="M1169 2533 c-4 -63 3 -101 27 -152 29 -64 29 -61 5 -61 -24 0 -45
-25 -37 -46 4 -12 16 -15 40 -12 l34 4 5 -63 c6 -62 25 -111 55 -145 25 -29
32 -21 32 35 -1 44 -16 106 -44 167 -4 11 2 19 25 27 24 9 30 17 27 35 -3 20
-8 23 -40 21 l-36 -2 -12 67 c-11 65 -51 152 -70 152 -6 0 -11 -12 -11 -27z"/>
<path d="M3901 2534 c-22 -28 -48 -105 -53 -159 -2 -22 -8 -30 -23 -31 -41 -2
-45 -4 -45 -24 0 -12 10 -25 24 -31 l24 -11 -21 -47 c-23 -51 -37 -191 -19
-191 31 0 82 119 82 189 0 36 0 37 39 33 22 -2 42 1 46 8 9 14 -23 50 -45 50
-29 0 -29 10 -4 61 28 55 41 138 27 164 -9 15 -12 14 -32 -11z"/>
<path d="M1398 1859 c-40 -20 -68 -63 -68 -101 0 -32 36 -87 62 -97 27 -10 58
-9 58 2 0 4 0 15 0 26 0 13 -7 19 -25 19 -58 0 -65 68 -10 102 70 43 139 5
106 -58 -6 -12 -3 -23 10 -35 17 -18 18 -18 34 12 13 25 14 39 5 71 -20 75
-94 101 -172 59z"/>
<path d="M3560 1836 c-22 -22 -7 -52 72 -138 80 -88 82 -89 94 -66 11 20 10
26 -7 44 l-20 22 21 42 c19 37 24 41 49 35 23 -5 29 -1 39 20 6 14 11 25 9 25
-1 0 -27 3 -57 6 -30 3 -85 9 -122 13 -43 5 -71 4 -78 -3z m124 -48 c10 10 6
-13 -7 -36 -13 -22 -14 -22 -28 -5 -42 51 -42 52 -5 43 19 -4 37 -5 40 -2z"/>
<path d="M1507 1654 l-97 -64 50 -75 c35 -52 55 -73 65 -69 21 9 19 20 -15 69
-36 52 -36 56 -10 73 26 16 34 11 61 -38 13 -22 29 -40 36 -40 27 0 24 30 -6
74 -30 43 -31 46 -12 56 27 14 25 15 61 -40 27 -42 35 -48 51 -40 17 10 15 16
-29 85 -26 40 -49 74 -52 74 -3 0 -49 -29 -103 -65z"/>
<path d="M3492 1684 c-64 -27 -81 -112 -32 -167 38 -44 80 -61 124 -53 67 13
109 100 73 150 -12 16 -16 17 -34 5 -19 -12 -20 -15 -6 -35 20 -31 20 -29 -1
-53 -11 -12 -29 -21 -40 -21 -30 0 -85 36 -95 63 -12 31 7 67 35 67 19 0 44
24 44 43 0 12 -41 13 -68 1z"/>
<path d="M1628 1487 c-88 -73 -98 -86 -75 -105 9 -8 26 1 66 34 29 24 55 44
56 44 2 0 -7 -32 -21 -72 -27 -82 -29 -101 -11 -116 10 -9 31 4 91 53 l77 64
24 -27 c27 -31 29 -27 -59 -119 -44 -47 -47 -53 -33 -67 8 -9 19 -16 24 -15 4
0 33 29 63 64 59 68 76 76 102 46 15 -18 13 -24 -37 -99 -52 -77 -53 -80 -35
-97 18 -16 20 -15 46 24 41 62 56 52 64 -43 4 -47 10 -62 28 -74 l24 -16 -4
67 c-3 59 -1 66 14 61 39 -12 85 38 74 81 -3 13 -42 49 -93 88 -49 36 -115 92
-147 126 l-59 60 -58 -50 -58 -50 29 85 c27 81 28 87 12 105 -17 20 -19 18
-104 -52z m393 -284 c33 -20 44 -40 29 -58 -13 -15 -36 -10 -69 14 -21 16 -22
20 -10 39 17 26 14 26 50 5z"/>
<path d="M3363 1521 c-11 -18 -4 -27 78 -92 87 -69 90 -71 109 -54 19 17 17
20 -73 91 -50 40 -94 73 -97 74 -3 0 -11 -9 -17 -19z"/>
<path d="M3264 1406 c-31 -29 -55 -58 -53 -63 2 -6 40 -44 85 -86 75 -71 82
-75 97 -59 16 15 14 19 -19 53 -36 37 -36 37 -14 49 15 8 34 9 68 1 37 -8 52
-7 70 5 12 8 22 19 22 24 0 9 -84 26 -107 22 -9 -2 -11 6 -7 27 5 23 1 35 -19
55 -15 14 -35 26 -46 26 -11 0 -46 -24 -77 -54z m95 -14 c7 -13 2 -25 -19 -49
l-28 -31 -22 23 -21 22 31 27 c37 31 46 32 59 8z"/>
<path d="M3127 1283 l-68 -55 27 -36 c45 -59 116 -147 120 -147 2 0 36 24 75
54 62 48 69 56 55 69 -13 13 -20 10 -66 -23 l-52 -38 -18 23 c-18 24 -18 24
26 58 48 37 50 42 32 60 -9 9 -22 3 -55 -24 -36 -29 -46 -34 -58 -24 -16 13
-20 40 -7 40 4 0 24 15 45 33 33 28 36 34 25 49 -12 15 -20 11 -81 -39z"/>
<path d="M3019 1205 l-27 -14 18 -78 18 -78 -54 58 -54 58 -33 -16 -33 -16 53
-104 c30 -58 57 -105 61 -105 4 0 14 5 22 10 13 8 9 21 -23 82 l-38 73 59 -64
c51 -57 60 -63 79 -53 19 11 20 14 8 64 -26 110 -26 113 12 41 36 -67 39 -71
60 -60 21 12 21 13 -32 112 -29 55 -57 100 -62 102 -4 1 -20 -4 -34 -12z"/>
<path d="M2110 1122 c-32 -32 -55 -101 -44 -135 13 -45 70 -87 116 -87 61 0
118 69 118 142 0 92 -125 144 -190 80z m128 -40 c28 -36 0 -117 -44 -128 -35
-9 -74 11 -75 38 -3 57 17 103 49 111 25 6 55 -3 70 -21z"/>
<path d="M2752 1091 c-8 -5 -17 -41 -23 -87 -5 -43 -11 -98 -14 -121 -5 -38
-3 -43 15 -43 20 0 29 12 34 47 2 11 18 22 45 30 40 11 44 11 64 -12 18 -19
27 -22 45 -14 22 8 21 11 -53 109 -74 98 -87 108 -113 91z m69 -113 c7 -14 6
-18 -5 -18 -8 0 -21 -3 -30 -6 -16 -6 -16 4 -7 71 2 10 25 -16 42 -47z"/>
<path d="M2373 663 c-24 -5 -27 -13 -17 -50 4 -16 14 -23 30 -23 13 0 24 5 24
11 0 6 -7 9 -15 5 -8 -3 -15 -1 -15 4 0 6 7 10 15 10 21 0 19 18 -2 23 -17 4
-17 5 0 6 9 0 17 6 17 11 0 6 -3 9 -7 9 -5 -1 -18 -4 -30 -6z"/>
<path d="M2470 630 c0 -43 14 -54 23 -19 3 12 10 18 16 14 6 -3 11 -2 11 4 0
5 -8 12 -17 14 -17 4 -17 5 0 6 27 2 20 21 -8 21 -22 0 -25 -4 -25 -40z"/>
<path d="M2537 658 c-2 -7 -3 -24 -2 -38 1 -19 8 -26 28 -28 15 -2 27 1 27 7
0 6 -7 11 -15 11 -8 0 -15 5 -15 11 0 5 4 8 9 4 5 -3 12 -1 15 4 4 5 -2 12
-11 14 -17 4 -17 5 0 6 9 0 17 6 17 11 0 15 -47 12 -53 -2z"/>
<path d="M2610 630 c0 -39 1 -41 28 -38 24 3 27 7 27 38 0 31 -3 35 -27 38
-27 3 -28 1 -28 -38z"/>
<path d="M2689 654 c0 -11 -2 -29 -3 -41 -2 -14 3 -23 11 -23 7 0 13 5 13 12
0 6 8 4 19 -6 18 -16 18 -15 18 24 0 26 -4 40 -13 40 -7 0 -19 3 -28 6 -11 4
-16 0 -17 -12z m41 -14 c0 -5 -4 -10 -10 -10 -5 0 -10 5 -10 10 0 6 5 10 10
10 6 0 10 -4 10 -10z"/>
<path d="M2269 655 c-11 -11 4 -75 18 -75 26 0 53 20 53 40 0 26 -54 53 -71
35z m46 -35 c0 -7 -6 -15 -12 -17 -8 -3 -13 4 -13 17 0 13 5 20 13 18 6 -3 12
-11 12 -18z"/>
<path d="M2768 632 c-2 -16 -2 -34 0 -40 5 -15 52 -16 52 -2 0 6 -7 10 -15 10
-8 0 -15 4 -15 10 0 5 7 7 15 4 8 -4 15 -1 15 4 0 6 -8 13 -17 15 -13 3 -12 5
5 6 30 1 18 21 -12 21 -18 0 -25 -7 -28 -28z"/>
<path d="M2168 639 c-37 -21 -13 -88 24 -68 26 14 24 49 -4 50 -17 1 -19 2 -5
6 9 2 17 9 17 14 0 12 -10 11 -32 -2z m22 -49 c0 -5 -4 -10 -10 -10 -5 0 -10
5 -10 10 0 6 5 10 10 10 6 0 10 -4 10 -10z"/>
<path d="M2838 620 c-5 -32 9 -51 22 -30 5 8 9 7 13 -4 4 -9 14 -16 23 -16 13
0 14 3 4 15 -9 11 -10 19 -1 28 14 17 -5 37 -35 37 -17 0 -23 -7 -26 -30z m37
10 c3 -5 1 -10 -4 -10 -6 0 -11 5 -11 10 0 6 2 10 4 10 3 0 8 -4 11 -10z"/>
<path d="M2933 633 c-7 -2 -13 -18 -13 -34 0 -23 5 -30 27 -35 30 -8 56 17 46
44 -11 28 -32 37 -60 25z m37 -33 c0 -11 -7 -20 -15 -20 -8 0 -15 9 -15 20 0
11 7 20 15 20 8 0 15 -9 15 -20z"/>
<path d="M2084 619 c-3 -6 -1 -15 6 -19 8 -5 9 -16 5 -30 -6 -19 -4 -22 10
-17 9 4 21 7 26 7 5 0 9 5 9 11 0 5 -4 8 -9 5 -5 -3 -11 8 -15 24 -6 31 -19
39 -32 19z"/>
<path d="M2373 533 c-13 -5 -17 -40 -7 -66 6 -16 54 -11 54 5 0 6 -7 8 -15 5
-8 -4 -17 -2 -20 2 -2 5 5 12 18 16 l22 7 -25 8 c-17 5 -19 8 -7 9 9 1 17 6
17 11 0 10 -16 12 -37 3z"/>
<path d="M2483 533 c-10 -3 -10 -9 0 -24 10 -16 9 -21 -3 -29 -8 -5 -13 -10
-10 -11 28 -5 52 -4 56 3 3 4 0 8 -5 8 -6 0 -11 14 -11 30 0 30 -4 33 -27 23z"/>
<path d="M2547 533 c-3 -5 -4 -21 -3 -38 1 -25 5 -30 26 -30 22 0 25 5 27 38
2 33 0 37 -22 37 -13 0 -26 -3 -28 -7z m28 -43 c3 -5 1 -10 -4 -10 -6 0 -11 5
-11 10 0 6 2 10 4 10 3 0 8 -4 11 -10z"/>
<path d="M2624 509 c-14 -16 -16 -23 -6 -26 7 -3 19 -11 26 -19 20 -19 36 3
29 39 -6 33 -23 35 -49 6z m26 -9 c0 -5 -5 -10 -11 -10 -5 0 -7 5 -4 10 3 6 8
10 11 10 2 0 4 -4 4 -10z"/>
<path d="M2713 523 c-8 -3 -11 -14 -7 -29 4 -15 2 -24 -5 -24 -21 0 -11 -18
12 -22 21 -4 23 -1 22 33 -1 42 -4 48 -22 42z"/>
<path d="M2276 483 c8 -47 6 -45 38 -33 52 19 41 70 -16 70 -28 0 -29 -1 -22
-37z m48 11 c8 -21 8 -21 -9 -28 -11 -4 -15 1 -15 19 0 28 15 33 24 9z"/>
<path d="M4179 402 c-8 -1 -29 -28 -46 -60 -30 -55 -32 -57 -77 -60 -26 -2
-46 0 -45 5 1 4 1 25 0 46 -1 26 -6 37 -16 37 -12 0 -15 -13 -15 -60 l0 -61
35 6 c19 3 52 8 73 11 20 3 45 14 55 25 19 20 66 26 83 9 5 -5 15 -5 23 -1 18
12 -47 108 -70 103z m15 -57 c4 -10 -1 -15 -14 -15 -13 0 -18 5 -14 15 4 8 10
15 14 15 4 0 10 -7 14 -15z"/>
<path d="M3586 362 c-52 -58 68 -140 132 -89 17 14 15 51 -6 77 -26 32 -101
39 -126 12z m94 -22 c16 -16 18 -25 10 -40 -19 -36 -80 -17 -80 25 0 38 39 46
70 15z"/>
<path d="M3762 362 c-7 -2 -12 -26 -12 -59 0 -46 3 -54 17 -51 9 2 20 14 23
27 l5 24 34 -29 c50 -42 88 -41 41 1 -19 17 -19 18 1 34 17 14 18 19 7 33 -12
16 -88 30 -116 20z m88 -32 c0 -5 -3 -10 -7 -11 -5 0 -17 -2 -27 -4 -24 -5
-38 3 -31 16 8 12 65 12 65 -1z"/>
<path d="M3322 268 c-18 -18 -14 -52 8 -81 22 -28 81 -50 106 -40 24 9 9 28
-20 25 -40 -4 -66 14 -66 48 0 37 25 40 64 9 30 -24 47 -19 25 7 -15 18 -69
44 -92 44 -7 0 -18 -5 -25 -12z"/>
<path d="M4273 248 c-5 -7 -18 -33 -28 -58 -28 -68 -33 -72 -59 -53 -21 16
-21 18 -4 35 10 10 15 24 11 34 -5 13 -15 15 -55 10 -77 -11 -78 -11 -78 -76
0 -53 2 -58 20 -53 15 4 19 12 16 29 -6 29 18 32 52 8 31 -21 85 -11 109 20
19 25 73 44 73 26 0 -12 27 -14 34 -2 2 4 -7 27 -22 50 -27 42 -52 53 -69 30z
m29 -43 c0 -5 -5 -11 -11 -13 -6 -2 -11 4 -11 13 0 9 5 15 11 13 6 -2 11 -8
11 -13z m-142 -17 c0 -8 -42 -28 -60 -28 -16 0 1 29 18 32 29 6 42 5 42 -4z"/>
<path d="M3480 188 c0 -55 8 -66 56 -83 57 -19 74 -6 74 55 0 38 -4 50 -15 50
-9 0 -15 -10 -16 -27 -2 -52 -4 -58 -19 -60 -27 -5 -44 15 -46 54 -3 54 -2 53
-19 53 -11 0 -15 -11 -15 -42z"/>
<path d="M3641 139 c1 -32 5 -59 10 -59 5 0 11 -1 14 -2 2 0 25 -4 50 -8 33
-5 45 -4 45 6 0 8 -15 14 -37 16 -38 3 -38 4 -41 49 -2 36 -7 48 -22 52 -18 5
-19 0 -19 -54z"/>
<path d="M3993 158 c-1 -64 -2 -68 -28 -68 -25 0 -27 3 -29 55 -1 20 -7 31
-18 33 -15 3 -18 -4 -18 -40 0 -57 10 -70 54 -70 52 0 76 25 76 79 0 35 -3 43
-19 43 -14 0 -18 -8 -18 -32z"/>
<path d="M3750 170 c0 -5 11 -10 24 -10 23 0 25 -5 28 -47 2 -35 7 -48 18 -48
10 0 15 11 16 30 1 17 2 38 3 48 1 11 9 17 26 17 14 0 25 5 25 10 0 6 -30 10
-70 10 -40 0 -70 -4 -70 -10z"/>
<path d="M730 431 c0 -38 5 -63 14 -70 12 -10 15 -8 18 13 3 25 4 25 35 10 24
-12 30 -21 28 -40 -1 -16 4 -28 17 -35 18 -10 19 -7 16 53 -2 52 -6 63 -21 66
-16 3 -18 0 -12 -19 l7 -22 -33 20 c-22 12 -34 27 -33 40 0 11 -8 26 -18 32
-17 10 -18 7 -18 -48z"/>
<path d="M1704 422 c-14 -9 -67 -123 -60 -129 2 -3 14 5 26 17 29 29 69 43 85
30 7 -6 20 -8 29 -4 13 5 11 13 -16 50 -31 44 -43 50 -64 36z m26 -53 c0 -5
-7 -9 -15 -9 -15 0 -20 12 -9 23 8 8 24 -1 24 -14z"/>
<path d="M911 354 c-17 -26 -28 -51 -25 -55 7 -12 34 -11 34 1 0 17 48 11 67
-8 19 -20 54 -36 52 -24 -3 25 -67 127 -81 130 -12 2 -27 -12 -47 -44z m58
-13 c9 -16 8 -18 -9 -14 -21 5 -25 15 -13 26 9 10 11 9 22 -12z"/>
<path d="M1510 321 l0 -59 55 13 c31 7 59 15 62 19 13 13 -7 17 -41 8 -35 -10
-36 -9 -37 16 -1 15 -1 35 0 45 2 11 -5 17 -18 17 -19 0 -21 -6 -21 -59z"/>
<path d="M1066 348 c-22 -31 -20 -45 9 -73 27 -28 85 -34 104 -11 17 20 -3 30
-29 14 -27 -17 -54 0 -58 36 -4 34 21 44 58 22 35 -20 50 -4 18 18 -33 24 -84
20 -102 -6z"/>
<path d="M1220 308 c0 -50 3 -58 19 -58 16 0 18 7 16 53 -4 67 -3 64 -20 64
-12 0 -15 -13 -15 -59z"/>
<path d="M1315 335 c-8 -14 -22 -37 -31 -51 -19 -32 -5 -54 19 -30 17 18 83
22 89 6 2 -6 13 -12 26 -15 l22 -4 -27 47 c-14 26 -31 53 -36 60 -15 20 -45
14 -62 -13z m45 -24 c8 -17 7 -20 -10 -18 -11 1 -20 2 -20 3 0 7 13 34 16 34
2 0 8 -9 14 -19z"/>
<path d="M705 283 l0 -57 55 -33 c60 -36 72 -40 64 -20 -2 6 -22 21 -44 31
-38 18 -40 21 -40 66 0 41 -12 70 -30 70 -3 0 -5 -26 -5 -57z"/>
<path d="M1720 260 l-45 -18 -1 -56 c-1 -63 2 -64 62 -37 77 35 102 117 39
127 -6 1 -30 -6 -55 -16z m53 -24 c8 -20 -15 -58 -40 -67 -21 -8 -23 -6 -23
31 0 28 5 40 18 43 31 8 40 7 45 -7z"/>
<path d="M842 203 c2 -46 7 -58 21 -61 16 -3 18 3 15 55 -2 46 -7 58 -21 61
-16 3 -18 -3 -15 -55z"/>
<path d="M905 183 l0 -57 45 -13 c75 -22 122 -6 86 29 -11 11 -12 18 -4 26 16
16 -15 48 -51 55 -16 3 -39 9 -53 12 -23 6 -24 4 -23 -52z m81 17 c8 0 14 -6
14 -14 0 -18 -52 -6 -58 14 -3 9 1 11 12 7 10 -4 24 -7 32 -7z m5 -50 c28 -15
23 -29 -8 -24 -32 6 -43 12 -43 25 0 12 27 12 51 -1z"/>
<path d="M1553 208 c-5 -7 -22 -37 -36 -65 -22 -42 -24 -53 -12 -53 8 0 24 9
35 20 22 22 60 26 76 10 6 -6 18 -8 27 -4 14 5 11 13 -16 55 -32 48 -56 60
-74 37z m37 -50 c0 -5 -7 -8 -15 -8 -17 0 -18 2 -9 25 5 13 8 14 15 3 5 -7 9
-16 9 -20z"/>
<path d="M1070 143 l0 -59 38 -2 c20 -1 50 -5 66 -8 21 -5 27 -3 24 7 -5 14
-9 16 -57 18 -16 0 -32 8 -35 17 -5 14 1 15 39 12 31 -4 45 -1 45 7 0 7 -16
12 -35 13 -40 2 -58 9 -50 21 2 5 25 6 50 3 30 -3 45 -1 45 7 0 6 -6 11 -12
11 -7 0 -37 3 -65 6 l-53 6 0 -59z"/>
<path d="M1398 193 c-36 -6 -36 -23 0 -23 26 0 27 -3 27 -42 0 -33 4 -43 18
-46 14 -3 17 4 17 47 0 48 2 51 25 51 14 0 25 5 25 10 0 10 -57 11 -112 3z"/>
<path d="M1229 183 c-1 -5 -2 -32 -3 -60 -2 -45 0 -53 16 -53 13 0 18 7 18 25
0 14 4 25 9 25 5 0 23 -11 39 -25 17 -14 38 -25 48 -25 15 0 14 3 -7 26 -22
23 -23 26 -6 35 23 13 22 36 -2 49 -23 12 -110 14 -112 3z m89 -31 c2 -8 -8
-12 -27 -12 -21 0 -31 5 -31 15 0 19 52 15 58 -3z"/>
<path d="M713 2130 c-24 -15 -61 -30 -82 -34 -61 -9 -96 -46 -92 -97 2 -24 85
-105 153 -149 88 -57 90 -54 85 137 -2 85 -8 158 -13 162 -5 5 -28 -4 -51 -19z
m31 -142 c-3 -62 -7 -114 -9 -117 -11 -10 -68 25 -115 71 -77 75 -70 90 65
136 33 11 61 21 62 21 1 1 -1 -49 -3 -111z"/>
<path d="M4364 2148 c-10 -15 -18 -282 -10 -313 6 -22 9 -23 32 -15 39 15 104
63 157 115 37 37 47 54 47 80 0 41 -35 72 -92 81 -21 4 -58 19 -83 35 -30 19
-47 25 -51 17z m78 -72 c19 -8 46 -16 60 -18 33 -5 58 -26 58 -49 0 -35 -146
-156 -165 -137 -2 2 -6 52 -9 111 -4 118 -4 118 56 93z"/>
<path d="M515 1880 c9 -148 15 -191 32 -245 39 -124 88 -177 219 -240 94 -44
131 -78 141 -127 5 -24 8 -26 26 -17 42 23 106 92 127 137 18 38 21 59 17 108
-9 114 -67 175 -246 255 -146 66 -181 88 -259 163 l-63 60 6 -94z m263 -142
c199 -97 257 -155 255 -254 -2 -48 -39 -128 -76 -162 -25 -23 -25 -23 -32 -3
-8 28 -64 69 -165 125 -47 26 -96 57 -108 69 -53 49 -84 143 -98 296 l-6 74
43 -37 c24 -21 109 -69 187 -108z"/>
<path d="M4565 1919 c-49 -48 -124 -103 -175 -126 -193 -88 -240 -115 -277
-157 -91 -104 -83 -238 21 -334 24 -22 52 -45 64 -51 18 -10 21 -8 27 19 11
50 45 80 140 126 182 86 234 185 250 477 3 53 4 97 3 97 -2 0 -25 -23 -53 -51z
m10 -106 c-10 -113 -16 -144 -37 -200 -27 -72 -64 -113 -140 -153 -99 -52
-169 -101 -188 -132 l-17 -28 -25 28 c-33 34 -65 98 -71 140 -15 100 52 172
254 271 79 39 162 86 184 105 22 20 41 35 43 36 1 0 0 -30 -3 -67z"/>
<path d="M4012 1473 c-12 -31 -7 -413 7 -476 16 -74 50 -113 149 -170 117 -68
198 -132 224 -177 13 -22 26 -40 29 -40 16 0 72 69 95 116 42 85 34 187 -21
275 -36 55 -115 121 -227 187 -57 33 -122 76 -145 96 -46 40 -91 123 -95 174
-3 36 -6 39 -16 15z m228 -316 c196 -118 254 -188 254 -307 1 -50 -5 -76 -24
-113 -31 -61 -36 -64 -60 -34 -11 14 -81 66 -156 118 -186 127 -201 153 -209
366 l-4 116 37 -35 c20 -20 93 -70 162 -111z"/>
<path d="M1102 1452 c-4 -46 -51 -130 -95 -167 -23 -20 -89 -64 -145 -97 -165
-97 -234 -169 -265 -274 -26 -90 1 -194 73 -271 35 -38 46 -41 55 -12 15 46
116 128 255 207 99 56 126 97 138 212 11 101 8 408 -4 420 -6 6 -10 1 -12 -18z
m-17 -268 c-8 -208 -26 -240 -192 -351 -64 -43 -135 -95 -157 -116 l-40 -38
-18 23 c-29 39 -51 125 -44 174 14 104 77 174 250 277 67 39 139 88 161 109
22 21 41 38 42 38 2 0 1 -52 -2 -116z"/>
</g>
</svg>
